<svg width="22" height="22" viewBox="0 0 22 22" fill="none" xmlns="http://www.w3.org/2000/svg">
<path d="M18.3335 5.5H16.5002V3.66667C16.5002 3.16067 16.0904 2.75 15.5835 2.75H2.75016C2.24325 2.75 1.8335 3.16067 1.8335 3.66667V17.4167C1.8335 18.9328 3.06733 20.1667 4.5835 20.1667H13.7502C15.2663 20.1667 16.5002 18.9328 16.5002 17.4167V16.5H18.3335C19.3446 16.5 20.1668 15.6778 20.1668 14.6667V7.33333C20.1668 6.32225 19.3446 5.5 18.3335 5.5ZM7.3335 15.5833H5.50016V6.41667H7.3335V15.5833ZM12.8335 15.5833H11.0002V6.41667H12.8335V15.5833ZM18.3335 14.6667H16.5002V7.33333H18.3335V14.6667Z" fill="#999999"/>
</svg>
