<svg width="24" height="24" viewBox="0 0 24 24" fill="none" xmlns="http://www.w3.org/2000/svg">
<path d="M20.9471 8.30499C20.9361 7.54799 20.7961 6.79699 20.5281 6.08899C20.0591 4.87999 19.1041 3.92399 17.8951 3.45599C17.1961 3.19299 16.4571 3.05199 15.7091 3.03599C14.7471 2.99299 14.4421 2.98099 12.0001 2.98099C9.55807 2.98099 9.24507 2.98099 8.29007 3.03599C7.54307 3.05199 6.80407 3.19299 6.10507 3.45599C4.89607 3.92399 3.94007 4.87999 3.47207 6.08899C3.20907 6.78799 3.06707 7.52699 3.05307 8.27399C3.01007 9.23699 2.99707 9.54199 2.99707 11.984C2.99707 14.426 2.99707 14.738 3.05307 15.694C3.06807 16.442 3.20907 17.18 3.47207 17.881C3.94107 19.089 4.89607 20.045 6.10607 20.513C6.80207 20.785 7.54107 20.939 8.29107 20.963C9.25407 21.006 9.55907 21.019 12.0011 21.019C14.4431 21.019 14.7561 21.019 15.7111 20.963C16.4581 20.948 17.1971 20.807 17.8971 20.544C19.1061 20.075 20.0611 19.119 20.5301 17.911C20.7931 17.211 20.9341 16.473 20.9491 15.724C20.9921 14.762 21.0051 14.457 21.0051 12.014C21.0031 9.57199 21.0031 9.26199 20.9471 8.30499ZM11.9941 16.602C9.44007 16.602 7.37107 14.533 7.37107 11.979C7.37107 9.42499 9.44007 7.35599 11.9941 7.35599C14.5461 7.35599 16.6171 9.42499 16.6171 11.979C16.6171 14.533 14.5461 16.602 11.9941 16.602ZM16.8011 8.26299C16.2041 8.26299 15.7231 7.78099 15.7231 7.18499C15.7231 6.58899 16.2041 6.10699 16.8011 6.10699C17.3961 6.10699 17.8781 6.58899 17.8781 7.18499C17.8781 7.78099 17.3961 8.26299 16.8011 8.26299Z" fill="#484848"/>
<path d="M11.9942 14.982C13.6527 14.982 14.9972 13.6375 14.9972 11.979C14.9972 10.3205 13.6527 8.97601 11.9942 8.97601C10.3357 8.97601 8.99121 10.3205 8.99121 11.979C8.99121 13.6375 10.3357 14.982 11.9942 14.982Z" fill="#484848"/>
</svg>
