<svg width="24" height="24" viewBox="0 0 24 24" fill="none" xmlns="http://www.w3.org/2000/svg">
<path d="M21.9514 10.343V10.1525V10.0192C21.6844 8.61414 21.008 7.31445 20.0037 6.27634C18.922 5.15892 17.588 4.30443 16.1083 3.78113C14.7931 3.28484 13.3984 3.02043 11.9889 3.00018C10.1309 2.98981 8.29857 3.4247 6.65214 4.26683C5.2105 4.92642 4.00038 5.988 3.17387 7.31818C2.34737 8.64836 1.94135 10.1878 2.00684 11.7429C2.15339 13.2805 2.76731 14.74 3.76952 15.9334C4.77121 17.1135 6.05592 18.0329 7.50913 18.6095C8.40893 18.9481 9.3424 19.1938 10.2944 19.3429H10.4015C10.6742 19.3429 10.7423 19.4571 10.7618 19.4857C10.7813 19.5543 10.7813 19.6267 10.7618 19.6952C10.7618 19.7524 10.7618 19.8 10.7618 19.8476C10.6212 20.268 10.5779 20.7137 10.6352 21.1524C10.6617 21.3864 10.7759 21.6025 10.9557 21.759C11.1356 21.9156 11.3683 22.0014 11.6091 22C12.1734 21.9322 12.7119 21.7294 13.177 21.4095H13.2257C14.1995 20.8571 15.115 20.219 15.8064 19.7333C17.4751 18.6642 18.9913 17.3832 20.3154 15.9239C21.5925 14.3476 22.1806 12.3415 21.9514 10.343ZM8.22979 13.3239H6.50606C6.44431 13.3252 6.38293 13.3142 6.32562 13.2917C6.2683 13.2692 6.21624 13.2356 6.17256 13.1929C6.12889 13.1502 6.09451 13.0993 6.07149 13.0432C6.04846 12.9872 6.03728 12.9271 6.03861 12.8667V9.32392C6.03728 9.26354 6.04846 9.20351 6.07149 9.14746C6.09451 9.09141 6.12889 9.0405 6.17256 8.99779C6.21624 8.95507 6.2683 8.92145 6.32562 8.89894C6.38293 8.87642 6.44431 8.86549 6.50606 8.86679C6.56826 8.86552 6.6301 8.87641 6.68794 8.89881C6.74578 8.92122 6.79847 8.95469 6.84291 8.99726C6.88736 9.03984 6.92266 9.09066 6.94676 9.14676C6.97086 9.20285 6.98326 9.26308 6.98325 9.32392V12.4001H8.22979C8.35635 12.4001 8.47772 12.4492 8.56721 12.5368C8.6567 12.6243 8.70698 12.743 8.70698 12.8667C8.70699 12.9276 8.69459 12.9878 8.67049 13.0439C8.64639 13.1 8.61108 13.1508 8.56664 13.1934C8.5222 13.236 8.46951 13.2695 8.41167 13.2919C8.35382 13.3143 8.29199 13.3251 8.22979 13.3239ZM10.0314 12.8572C10.0314 12.9835 9.98012 13.1046 9.88881 13.1939C9.79749 13.2832 9.67364 13.3334 9.5445 13.3334C9.41535 13.3334 9.2915 13.2832 9.20018 13.1939C9.10887 13.1046 9.05757 12.9835 9.05757 12.8572V9.3144C9.05757 9.18811 9.10887 9.06699 9.20018 8.97769C9.2915 8.88838 9.41535 8.83821 9.5445 8.83821C9.67364 8.83821 9.79749 8.88838 9.88881 8.97769C9.98012 9.06699 10.0314 9.18811 10.0314 9.3144V12.8572ZM14.2969 12.8572C14.2956 12.955 14.2629 13.0498 14.2035 13.1284C14.1441 13.207 14.061 13.2654 13.9658 13.2953H13.8197C13.7454 13.2961 13.6719 13.2792 13.6057 13.246C13.5396 13.2128 13.4826 13.1644 13.4399 13.1048L11.7454 10.8382V12.8572C11.7429 12.9793 11.6915 13.0956 11.6023 13.1811C11.513 13.2665 11.3931 13.3144 11.2682 13.3144C11.2044 13.3183 11.1405 13.3093 11.0804 13.2881C11.0202 13.2669 10.9652 13.2338 10.9186 13.191C10.8721 13.1482 10.835 13.0964 10.8097 13.039C10.7844 12.9816 10.7714 12.9197 10.7716 12.8572V9.41916C10.7716 9.3213 10.8025 9.22582 10.86 9.14573C10.9175 9.06564 10.9988 9.00482 11.0929 8.97155C11.1879 8.94301 11.2897 8.9442 11.3839 8.97493C11.4782 9.00566 11.5603 9.06441 11.6188 9.14297L13.3231 11.4287V9.3144C13.3231 9.18811 13.3744 9.06699 13.4657 8.97769C13.557 8.88838 13.6808 8.83821 13.81 8.83821C13.9391 8.83821 14.063 8.88838 14.1543 8.97769C14.2456 9.06699 14.2969 9.18811 14.2969 9.3144V12.8572ZM17.7346 13.2382H15.3974C15.3356 13.2395 15.2742 13.2285 15.2169 13.206C15.1596 13.1835 15.1076 13.1499 15.0639 13.1072C15.0202 13.0645 14.9858 13.0135 14.9628 12.9575C14.9398 12.9014 14.9286 12.8414 14.9299 12.781V9.23821C14.9299 9.11697 14.9792 9.0007 15.0668 8.91497C15.1545 8.82924 15.2734 8.78107 15.3974 8.78107H17.6567C17.7859 8.78107 17.9097 8.83124 18.001 8.92054C18.0924 9.00985 18.1437 9.13097 18.1437 9.25726C18.1437 9.38355 18.0924 9.50467 18.001 9.59397C17.9097 9.68327 17.7859 9.73344 17.6567 9.73344H15.8648V10.5811H17.3256C17.4496 10.5811 17.5685 10.6292 17.6562 10.7149C17.7438 10.8007 17.7931 10.917 17.7931 11.0382C17.7931 11.1603 17.7442 11.2776 17.6568 11.3649C17.5694 11.4521 17.4505 11.5024 17.3256 11.5049H15.8648V12.3525H17.7346C17.8638 12.3525 17.9876 12.4026 18.0789 12.4919C18.1703 12.5812 18.2216 12.7024 18.2216 12.8286C18.2216 12.9549 18.1703 13.0761 18.0789 13.1654C17.9876 13.2547 17.8638 13.3048 17.7346 13.3048V13.2382Z" fill="#999999"/>
</svg>
